<?xml version="1.0" encoding="utf-8" standalone="no"?>
<!DOCTYPE svg PUBLIC "-//W3C//DTD SVG 1.1//EN"
  "http://www.w3.org/Graphics/SVG/1.1/DTD/svg11.dtd">
<!-- Created with matplotlib (https://matplotlib.org/) -->
<svg height="345.6pt" version="1.1" viewBox="0 0 460.8 345.6" width="460.8pt" xmlns="http://www.w3.org/2000/svg" xmlns:xlink="http://www.w3.org/1999/xlink">
 <defs>
  <style type="text/css">
*{stroke-linecap:butt;stroke-linejoin:round;}
  </style>
 </defs>
 <g id="figure_1">
  <g id="patch_1">
   <path d="M 0 345.6 
L 460.8 345.6 
L 460.8 0 
L 0 0 
z
" style="fill:#ffffff;"/>
  </g>
  <g id="axes_1">
   <g id="patch_2">
    <path d="M 57.6 307.584 
L 414.72 307.584 
L 414.72 41.472 
L 57.6 41.472 
z
" style="fill:#ffffff;"/>
   </g>
   <g id="matplotlib.axis_1">
    <g id="xtick_1">
     <g id="line2d_1">
      <defs>
       <path d="M 0 0 
L 0 3.5 
" id="m12b1333ecf" style="stroke:#000000;stroke-width:0.8;"/>
      </defs>
      <g>
       <use style="stroke:#000000;stroke-width:0.8;" x="73.832727" xlink:href="#m12b1333ecf" y="307.584"/>
      </g>
     </g>
     <g id="text_1">
      <!-- −5.0 -->
      <defs>
       <path d="M 10.59375 35.5 
L 73.1875 35.5 
L 73.1875 27.203125 
L 10.59375 27.203125 
z
" id="DejaVuSans-8722"/>
       <path d="M 10.796875 72.90625 
L 49.515625 72.90625 
L 49.515625 64.59375 
L 19.828125 64.59375 
L 19.828125 46.734375 
Q 21.96875 47.46875 24.109375 47.828125 
Q 26.265625 48.1875 28.421875 48.1875 
Q 40.625 48.1875 47.75 41.5 
Q 54.890625 34.8125 54.890625 23.390625 
Q 54.890625 11.625 47.5625 5.09375 
Q 40.234375 -1.421875 26.90625 -1.421875 
Q 22.3125 -1.421875 17.546875 -0.640625 
Q 12.796875 0.140625 7.71875 1.703125 
L 7.71875 11.625 
Q 12.109375 9.234375 16.796875 8.0625 
Q 21.484375 6.890625 26.703125 6.890625 
Q 35.15625 6.890625 40.078125 11.328125 
Q 45.015625 15.765625 45.015625 23.390625 
Q 45.015625 31 40.078125 35.4375 
Q 35.15625 39.890625 26.703125 39.890625 
Q 22.75 39.890625 18.8125 39.015625 
Q 14.890625 38.140625 10.796875 36.28125 
z
" id="DejaVuSans-53"/>
       <path d="M 10.6875 12.40625 
L 21 12.40625 
L 21 0 
L 10.6875 0 
z
" id="DejaVuSans-46"/>
       <path d="M 31.78125 66.40625 
Q 24.171875 66.40625 20.328125 58.90625 
Q 16.5 51.421875 16.5 36.375 
Q 16.5 21.390625 20.328125 13.890625 
Q 24.171875 6.390625 31.78125 6.390625 
Q 39.453125 6.390625 43.28125 13.890625 
Q 47.125 21.390625 47.125 36.375 
Q 47.125 51.421875 43.28125 58.90625 
Q 39.453125 66.40625 31.78125 66.40625 
z
M 31.78125 74.21875 
Q 44.046875 74.21875 50.515625 64.515625 
Q 56.984375 54.828125 56.984375 36.375 
Q 56.984375 17.96875 50.515625 8.265625 
Q 44.046875 -1.421875 31.78125 -1.421875 
Q 19.53125 -1.421875 13.0625 8.265625 
Q 6.59375 17.96875 6.59375 36.375 
Q 6.59375 54.828125 13.0625 64.515625 
Q 19.53125 74.21875 31.78125 74.21875 
z
" id="DejaVuSans-48"/>
      </defs>
      <g transform="translate(61.691321 322.182437)scale(0.1 -0.1)">
       <use xlink:href="#DejaVuSans-8722"/>
       <use x="83.789062" xlink:href="#DejaVuSans-53"/>
       <use x="147.412109" xlink:href="#DejaVuSans-46"/>
       <use x="179.199219" xlink:href="#DejaVuSans-48"/>
      </g>
     </g>
    </g>
    <g id="xtick_2">
     <g id="line2d_2">
      <g>
       <use style="stroke:#000000;stroke-width:0.8;" x="116.550431" xlink:href="#m12b1333ecf" y="307.584"/>
      </g>
     </g>
     <g id="text_2">
      <!-- −2.5 -->
      <defs>
       <path d="M 19.1875 8.296875 
L 53.609375 8.296875 
L 53.609375 0 
L 7.328125 0 
L 7.328125 8.296875 
Q 12.9375 14.109375 22.625 23.890625 
Q 32.328125 33.6875 34.8125 36.53125 
Q 39.546875 41.84375 41.421875 45.53125 
Q 43.3125 49.21875 43.3125 52.78125 
Q 43.3125 58.59375 39.234375 62.25 
Q 35.15625 65.921875 28.609375 65.921875 
Q 23.96875 65.921875 18.8125 64.3125 
Q 13.671875 62.703125 7.8125 59.421875 
L 7.8125 69.390625 
Q 13.765625 71.78125 18.9375 73 
Q 24.125 74.21875 28.421875 74.21875 
Q 39.75 74.21875 46.484375 68.546875 
Q 53.21875 62.890625 53.21875 53.421875 
Q 53.21875 48.921875 51.53125 44.890625 
Q 49.859375 40.875 45.40625 35.40625 
Q 44.1875 33.984375 37.640625 27.21875 
Q 31.109375 20.453125 19.1875 8.296875 
z
" id="DejaVuSans-50"/>
      </defs>
      <g transform="translate(104.409024 322.182437)scale(0.1 -0.1)">
       <use xlink:href="#DejaVuSans-8722"/>
       <use x="83.789062" xlink:href="#DejaVuSans-50"/>
       <use x="147.412109" xlink:href="#DejaVuSans-46"/>
       <use x="179.199219" xlink:href="#DejaVuSans-53"/>
      </g>
     </g>
    </g>
    <g id="xtick_3">
     <g id="line2d_3">
      <g>
       <use style="stroke:#000000;stroke-width:0.8;" x="159.268134" xlink:href="#m12b1333ecf" y="307.584"/>
      </g>
     </g>
     <g id="text_3">
      <!-- 0.0 -->
      <g transform="translate(151.316571 322.182437)scale(0.1 -0.1)">
       <use xlink:href="#DejaVuSans-48"/>
       <use x="63.623047" xlink:href="#DejaVuSans-46"/>
       <use x="95.410156" xlink:href="#DejaVuSans-48"/>
      </g>
     </g>
    </g>
    <g id="xtick_4">
     <g id="line2d_4">
      <g>
       <use style="stroke:#000000;stroke-width:0.8;" x="201.985837" xlink:href="#m12b1333ecf" y="307.584"/>
      </g>
     </g>
     <g id="text_4">
      <!-- 2.5 -->
      <g transform="translate(194.034275 322.182437)scale(0.1 -0.1)">
       <use xlink:href="#DejaVuSans-50"/>
       <use x="63.623047" xlink:href="#DejaVuSans-46"/>
       <use x="95.410156" xlink:href="#DejaVuSans-53"/>
      </g>
     </g>
    </g>
    <g id="xtick_5">
     <g id="line2d_5">
      <g>
       <use style="stroke:#000000;stroke-width:0.8;" x="244.703541" xlink:href="#m12b1333ecf" y="307.584"/>
      </g>
     </g>
     <g id="text_5">
      <!-- 5.0 -->
      <g transform="translate(236.751978 322.182437)scale(0.1 -0.1)">
       <use xlink:href="#DejaVuSans-53"/>
       <use x="63.623047" xlink:href="#DejaVuSans-46"/>
       <use x="95.410156" xlink:href="#DejaVuSans-48"/>
      </g>
     </g>
    </g>
    <g id="xtick_6">
     <g id="line2d_6">
      <g>
       <use style="stroke:#000000;stroke-width:0.8;" x="287.421244" xlink:href="#m12b1333ecf" y="307.584"/>
      </g>
     </g>
     <g id="text_6">
      <!-- 7.5 -->
      <defs>
       <path d="M 8.203125 72.90625 
L 55.078125 72.90625 
L 55.078125 68.703125 
L 28.609375 0 
L 18.3125 0 
L 43.21875 64.59375 
L 8.203125 64.59375 
z
" id="DejaVuSans-55"/>
      </defs>
      <g transform="translate(279.469682 322.182437)scale(0.1 -0.1)">
       <use xlink:href="#DejaVuSans-55"/>
       <use x="63.623047" xlink:href="#DejaVuSans-46"/>
       <use x="95.410156" xlink:href="#DejaVuSans-53"/>
      </g>
     </g>
    </g>
    <g id="xtick_7">
     <g id="line2d_7">
      <g>
       <use style="stroke:#000000;stroke-width:0.8;" x="330.138947" xlink:href="#m12b1333ecf" y="307.584"/>
      </g>
     </g>
     <g id="text_7">
      <!-- 10.0 -->
      <defs>
       <path d="M 12.40625 8.296875 
L 28.515625 8.296875 
L 28.515625 63.921875 
L 10.984375 60.40625 
L 10.984375 69.390625 
L 28.421875 72.90625 
L 38.28125 72.90625 
L 38.28125 8.296875 
L 54.390625 8.296875 
L 54.390625 0 
L 12.40625 0 
z
" id="DejaVuSans-49"/>
      </defs>
      <g transform="translate(319.006135 322.182437)scale(0.1 -0.1)">
       <use xlink:href="#DejaVuSans-49"/>
       <use x="63.623047" xlink:href="#DejaVuSans-48"/>
       <use x="127.246094" xlink:href="#DejaVuSans-46"/>
       <use x="159.033203" xlink:href="#DejaVuSans-48"/>
      </g>
     </g>
    </g>
    <g id="xtick_8">
     <g id="line2d_8">
      <g>
       <use style="stroke:#000000;stroke-width:0.8;" x="372.856651" xlink:href="#m12b1333ecf" y="307.584"/>
      </g>
     </g>
     <g id="text_8">
      <!-- 12.5 -->
      <g transform="translate(361.723838 322.182437)scale(0.1 -0.1)">
       <use xlink:href="#DejaVuSans-49"/>
       <use x="63.623047" xlink:href="#DejaVuSans-50"/>
       <use x="127.246094" xlink:href="#DejaVuSans-46"/>
       <use x="159.033203" xlink:href="#DejaVuSans-53"/>
      </g>
     </g>
    </g>
   </g>
   <g id="matplotlib.axis_2">
    <g id="ytick_1">
     <g id="line2d_9">
      <defs>
       <path d="M 0 0 
L -3.5 0 
" id="m2cd7eed205" style="stroke:#000000;stroke-width:0.8;"/>
      </defs>
      <g>
       <use style="stroke:#000000;stroke-width:0.8;" x="57.6" xlink:href="#m2cd7eed205" y="276.389053"/>
      </g>
     </g>
     <g id="text_9">
      <!-- −7.5 -->
      <g transform="translate(26.317187 280.188271)scale(0.1 -0.1)">
       <use xlink:href="#DejaVuSans-8722"/>
       <use x="83.789062" xlink:href="#DejaVuSans-55"/>
       <use x="147.412109" xlink:href="#DejaVuSans-46"/>
       <use x="179.199219" xlink:href="#DejaVuSans-53"/>
      </g>
     </g>
    </g>
    <g id="ytick_2">
     <g id="line2d_10">
      <g>
       <use style="stroke:#000000;stroke-width:0.8;" x="57.6" xlink:href="#m2cd7eed205" y="244.557474"/>
      </g>
     </g>
     <g id="text_10">
      <!-- −5.0 -->
      <g transform="translate(26.317187 248.356692)scale(0.1 -0.1)">
       <use xlink:href="#DejaVuSans-8722"/>
       <use x="83.789062" xlink:href="#DejaVuSans-53"/>
       <use x="147.412109" xlink:href="#DejaVuSans-46"/>
       <use x="179.199219" xlink:href="#DejaVuSans-48"/>
      </g>
     </g>
    </g>
    <g id="ytick_3">
     <g id="line2d_11">
      <g>
       <use style="stroke:#000000;stroke-width:0.8;" x="57.6" xlink:href="#m2cd7eed205" y="212.725895"/>
      </g>
     </g>
     <g id="text_11">
      <!-- −2.5 -->
      <g transform="translate(26.317187 216.525113)scale(0.1 -0.1)">
       <use xlink:href="#DejaVuSans-8722"/>
       <use x="83.789062" xlink:href="#DejaVuSans-50"/>
       <use x="147.412109" xlink:href="#DejaVuSans-46"/>
       <use x="179.199219" xlink:href="#DejaVuSans-53"/>
      </g>
     </g>
    </g>
    <g id="ytick_4">
     <g id="line2d_12">
      <g>
       <use style="stroke:#000000;stroke-width:0.8;" x="57.6" xlink:href="#m2cd7eed205" y="180.894316"/>
      </g>
     </g>
     <g id="text_12">
      <!-- 0.0 -->
      <g transform="translate(34.696875 184.693535)scale(0.1 -0.1)">
       <use xlink:href="#DejaVuSans-48"/>
       <use x="63.623047" xlink:href="#DejaVuSans-46"/>
       <use x="95.410156" xlink:href="#DejaVuSans-48"/>
      </g>
     </g>
    </g>
    <g id="ytick_5">
     <g id="line2d_13">
      <g>
       <use style="stroke:#000000;stroke-width:0.8;" x="57.6" xlink:href="#m2cd7eed205" y="149.062737"/>
      </g>
     </g>
     <g id="text_13">
      <!-- 2.5 -->
      <g transform="translate(34.696875 152.861956)scale(0.1 -0.1)">
       <use xlink:href="#DejaVuSans-50"/>
       <use x="63.623047" xlink:href="#DejaVuSans-46"/>
       <use x="95.410156" xlink:href="#DejaVuSans-53"/>
      </g>
     </g>
    </g>
    <g id="ytick_6">
     <g id="line2d_14">
      <g>
       <use style="stroke:#000000;stroke-width:0.8;" x="57.6" xlink:href="#m2cd7eed205" y="117.231158"/>
      </g>
     </g>
     <g id="text_14">
      <!-- 5.0 -->
      <g transform="translate(34.696875 121.030377)scale(0.1 -0.1)">
       <use xlink:href="#DejaVuSans-53"/>
       <use x="63.623047" xlink:href="#DejaVuSans-46"/>
       <use x="95.410156" xlink:href="#DejaVuSans-48"/>
      </g>
     </g>
    </g>
    <g id="ytick_7">
     <g id="line2d_15">
      <g>
       <use style="stroke:#000000;stroke-width:0.8;" x="57.6" xlink:href="#m2cd7eed205" y="85.399579"/>
      </g>
     </g>
     <g id="text_15">
      <!-- 7.5 -->
      <g transform="translate(34.696875 89.198798)scale(0.1 -0.1)">
       <use xlink:href="#DejaVuSans-55"/>
       <use x="63.623047" xlink:href="#DejaVuSans-46"/>
       <use x="95.410156" xlink:href="#DejaVuSans-53"/>
      </g>
     </g>
    </g>
    <g id="ytick_8">
     <g id="line2d_16">
      <g>
       <use style="stroke:#000000;stroke-width:0.8;" x="57.6" xlink:href="#m2cd7eed205" y="53.568"/>
      </g>
     </g>
     <g id="text_16">
      <!-- 10.0 -->
      <g transform="translate(28.334375 57.367219)scale(0.1 -0.1)">
       <use xlink:href="#DejaVuSans-49"/>
       <use x="63.623047" xlink:href="#DejaVuSans-48"/>
       <use x="127.246094" xlink:href="#DejaVuSans-46"/>
       <use x="159.033203" xlink:href="#DejaVuSans-48"/>
      </g>
     </g>
    </g>
   </g>
   <g id="line2d_17">
    <path clip-path="url(#p6b815bb5d8)" d="M 73.832727 241.309673 
L 78.126755 239.930122 
L 82.420783 238.31763 
L 86.714811 236.478558 
L 91.399206 234.222436 
L 96.0836 231.715913 
L 101.15836 228.731618 
L 106.233121 225.483725 
L 111.698247 221.71176 
L 117.55374 217.381597 
L 123.799599 212.468576 
L 130.435824 206.960763 
L 137.852782 200.516894 
L 146.831204 192.414892 
L 160.884387 179.388995 
L 175.718302 165.719285 
L 184.696724 157.751457 
L 192.113682 151.464314 
L 198.749907 146.130336 
L 204.6054 141.694268 
L 210.070527 137.812738 
L 215.535653 134.206506 
L 220.610414 131.12454 
L 225.294808 128.5227 
L 229.979202 126.166772 
L 234.663596 124.067816 
L 238.957624 122.377955 
L 243.251652 120.918987 
L 247.54568 119.696667 
L 251.839709 118.715819 
L 256.133737 117.980312 
L 260.037398 117.52703 
L 263.94106 117.280399 
L 267.844722 117.241221 
L 268.625455 117.258304 
L 268.625455 117.258304 
" style="fill:none;stroke:#000000;stroke-linecap:square;stroke-width:1.5;"/>
   </g>
   <g id="line2d_18">
    <path clip-path="url(#p6b815bb5d8)" d="M 73.832727 120.478958 
L 78.126755 121.858509 
L 82.420783 123.471002 
L 86.714811 125.310073 
L 91.399206 127.566195 
L 96.0836 130.072719 
L 101.15836 133.057014 
L 106.233121 136.304906 
L 111.698247 140.076872 
L 117.55374 144.407035 
L 123.799599 149.320055 
L 130.435824 154.827868 
L 137.852782 161.271737 
L 146.831204 169.37374 
L 160.884387 182.399637 
L 175.718302 196.069347 
L 184.696724 204.037175 
L 192.113682 210.324318 
L 198.749907 215.658295 
L 204.6054 220.094363 
L 210.070527 223.975894 
L 215.535653 227.582125 
L 220.610414 230.664092 
L 225.294808 233.265931 
L 229.979202 235.62186 
L 234.663596 237.720816 
L 238.957624 239.410676 
L 243.251652 240.869645 
L 247.54568 242.091964 
L 251.839709 243.072813 
L 256.133737 243.808319 
L 260.037398 244.261601 
L 263.94106 244.508233 
L 267.844722 244.54741 
L 268.625455 244.530328 
L 268.625455 244.530328 
" style="fill:none;stroke:#000000;stroke-linecap:square;stroke-width:1.5;"/>
   </g>
   <g id="line2d_19">
    <path clip-path="url(#p6b815bb5d8)" d="M 159.268134 53.568 
L 160.372753 54.596855 
L 161.477373 55.625441 
L 162.581992 56.653489 
L 163.686612 57.680732 
L 164.791231 58.706901 
L 165.89585 59.731727 
L 167.00047 60.754943 
L 168.105089 61.776282 
L 169.209709 62.795478 
L 170.314328 63.812263 
L 171.418947 64.826372 
L 172.523567 65.837541 
L 173.628186 66.845505 
L 174.732806 67.850001 
L 175.837425 68.850767 
L 176.942044 69.847541 
L 178.046664 70.840062 
L 179.151283 71.828073 
L 180.255903 72.811314 
L 181.360522 73.789529 
L 182.465141 74.762463 
L 183.569761 75.72986 
L 184.67438 76.691469 
L 185.779 77.647038 
L 186.883619 78.596318 
L 187.988238 79.539061 
L 189.092858 80.47502 
L 190.197477 81.403952 
L 191.302097 82.325613 
L 192.406716 83.239763 
L 193.511335 84.146162 
L 194.615955 85.044575 
L 195.720574 85.934767 
L 196.825194 86.816504 
L 197.929813 87.689557 
L 199.034432 88.553698 
L 200.139052 89.408701 
L 201.243671 90.254343 
L 202.348291 91.090402 
L 203.45291 91.916661 
L 204.557529 92.732904 
L 205.662149 93.538917 
L 206.766768 94.33449 
L 207.871388 95.119415 
L 208.976007 95.893487 
L 210.080626 96.656504 
L 211.185246 97.408267 
L 212.289865 98.148578 
L 213.394485 98.877246 
L 214.499104 99.59408 
L 215.603723 100.298891 
L 216.708343 100.991497 
L 217.812962 101.671717 
L 218.917582 102.339372 
L 220.022201 102.994288 
L 221.12682 103.636295 
L 222.23144 104.265224 
L 223.336059 104.880911 
L 224.440679 105.483196 
L 225.545298 106.071921 
L 226.649917 106.646933 
L 227.754537 107.20808 
L 228.859156 107.755218 
L 229.963776 108.288202 
L 231.068395 108.806893 
L 232.173014 109.311157 
L 233.277634 109.800861 
L 234.382253 110.275877 
L 235.486873 110.736082 
L 236.591492 111.181354 
L 237.696111 111.611579 
L 238.800731 112.026643 
L 239.90535 112.426438 
L 241.00997 112.81086 
L 242.114589 113.179808 
L 243.219208 113.533186 
L 244.323828 113.870901 
L 245.428447 114.192866 
L 246.533067 114.498996 
L 247.637686 114.789212 
L 248.742305 115.063436 
L 249.846925 115.321599 
L 250.951544 115.563632 
L 252.056164 115.789473 
L 253.160783 115.999062 
L 254.265402 116.192344 
L 255.370022 116.369269 
L 256.474641 116.529791 
L 257.579261 116.673868 
L 258.68388 116.801462 
L 259.788499 116.91254 
L 260.893119 117.007073 
L 261.997738 117.085036 
L 263.102358 117.146409 
L 264.206977 117.191176 
L 265.311596 117.219324 
L 266.416216 117.230848 
L 267.520835 117.225744 
L 268.625455 117.204012 
" style="fill:none;stroke:#000000;stroke-linecap:square;stroke-width:1.5;"/>
   </g>
   <g id="line2d_20">
    <path clip-path="url(#p6b815bb5d8)" d="M 268.625455 117.231158 
L 269.246803 117.231158 
L 269.868151 117.231158 
L 270.4895 117.231158 
L 271.110848 117.231158 
L 271.732197 117.231158 
L 272.353545 117.231158 
L 272.974893 117.231158 
L 273.596242 117.231158 
L 274.21759 117.231158 
L 274.838939 117.231158 
L 275.460287 117.231158 
L 276.081635 117.231158 
L 276.702984 117.231158 
L 277.324332 117.231158 
L 277.945681 117.231158 
L 278.567029 117.231158 
L 279.188378 117.231158 
L 279.809726 117.231158 
L 280.431074 117.231158 
L 281.052423 117.231158 
L 281.673771 117.231158 
L 282.29512 117.231158 
L 282.916468 117.231158 
L 283.537816 117.231158 
L 284.159165 117.231158 
L 284.780513 117.231158 
L 285.401862 117.231158 
L 286.02321 117.231158 
L 286.644559 117.231158 
L 287.265907 117.231158 
L 287.887255 117.231158 
L 288.508604 117.231158 
L 289.129952 117.231158 
L 289.751301 117.231158 
L 290.372649 117.231158 
L 290.993997 117.231158 
L 291.615346 117.231158 
L 292.236694 117.231158 
L 292.858043 117.231158 
L 293.479391 117.231158 
L 294.100739 117.231158 
L 294.722088 117.231158 
L 295.343436 117.231158 
L 295.964785 117.231158 
L 296.586133 117.231158 
L 297.207482 117.231158 
L 297.82883 117.231158 
L 298.450178 117.231158 
L 299.071527 117.231158 
L 299.692875 117.231158 
L 300.314224 117.231158 
L 300.935572 117.231158 
L 301.55692 117.231158 
L 302.178269 117.231158 
L 302.799617 117.231158 
L 303.420966 117.231158 
L 304.042314 117.231158 
L 304.663662 117.231158 
L 305.285011 117.231158 
L 305.906359 117.231158 
L 306.527708 117.231158 
L 307.149056 117.231158 
L 307.770405 117.231158 
L 308.391753 117.231158 
L 309.013101 117.231158 
L 309.63445 117.231158 
L 310.255798 117.231158 
L 310.877147 117.231158 
L 311.498495 117.231158 
L 312.119843 117.231158 
L 312.741192 117.231158 
L 313.36254 117.231158 
L 313.983889 117.231158 
L 314.605237 117.231158 
L 315.226585 117.231158 
L 315.847934 117.231158 
L 316.469282 117.231158 
L 317.090631 117.231158 
L 317.711979 117.231158 
L 318.333328 117.231158 
L 318.954676 117.231158 
L 319.576024 117.231158 
L 320.197373 117.231158 
L 320.818721 117.231158 
L 321.44007 117.231158 
L 322.061418 117.231158 
L 322.682766 117.231158 
L 323.304115 117.231158 
L 323.925463 117.231158 
L 324.546812 117.231158 
L 325.16816 117.231158 
L 325.789508 117.231158 
L 326.410857 117.231158 
L 327.032205 117.231158 
L 327.653554 117.231158 
L 328.274902 117.231158 
L 328.896251 117.231158 
L 329.517599 117.231158 
L 330.138947 117.231158 
" style="fill:none;stroke:#000000;stroke-linecap:square;stroke-width:1.5;"/>
   </g>
   <g id="line2d_21">
    <path clip-path="url(#p6b815bb5d8)" d="M 268.625455 244.557474 
L 269.246803 244.557474 
L 269.868151 244.557474 
L 270.4895 244.557474 
L 271.110848 244.557474 
L 271.732197 244.557474 
L 272.353545 244.557474 
L 272.974893 244.557474 
L 273.596242 244.557474 
L 274.21759 244.557474 
L 274.838939 244.557474 
L 275.460287 244.557474 
L 276.081635 244.557474 
L 276.702984 244.557474 
L 277.324332 244.557474 
L 277.945681 244.557474 
L 278.567029 244.557474 
L 279.188378 244.557474 
L 279.809726 244.557474 
L 280.431074 244.557474 
L 281.052423 244.557474 
L 281.673771 244.557474 
L 282.29512 244.557474 
L 282.916468 244.557474 
L 283.537816 244.557474 
L 284.159165 244.557474 
L 284.780513 244.557474 
L 285.401862 244.557474 
L 286.02321 244.557474 
L 286.644559 244.557474 
L 287.265907 244.557474 
L 287.887255 244.557474 
L 288.508604 244.557474 
L 289.129952 244.557474 
L 289.751301 244.557474 
L 290.372649 244.557474 
L 290.993997 244.557474 
L 291.615346 244.557474 
L 292.236694 244.557474 
L 292.858043 244.557474 
L 293.479391 244.557474 
L 294.100739 244.557474 
L 294.722088 244.557474 
L 295.343436 244.557474 
L 295.964785 244.557474 
L 296.586133 244.557474 
L 297.207482 244.557474 
L 297.82883 244.557474 
L 298.450178 244.557474 
L 299.071527 244.557474 
L 299.692875 244.557474 
L 300.314224 244.557474 
L 300.935572 244.557474 
L 301.55692 244.557474 
L 302.178269 244.557474 
L 302.799617 244.557474 
L 303.420966 244.557474 
L 304.042314 244.557474 
L 304.663662 244.557474 
L 305.285011 244.557474 
L 305.906359 244.557474 
L 306.527708 244.557474 
L 307.149056 244.557474 
L 307.770405 244.557474 
L 308.391753 244.557474 
L 309.013101 244.557474 
L 309.63445 244.557474 
L 310.255798 244.557474 
L 310.877147 244.557474 
L 311.498495 244.557474 
L 312.119843 244.557474 
L 312.741192 244.557474 
L 313.36254 244.557474 
L 313.983889 244.557474 
L 314.605237 244.557474 
L 315.226585 244.557474 
L 315.847934 244.557474 
L 316.469282 244.557474 
L 317.090631 244.557474 
L 317.711979 244.557474 
L 318.333328 244.557474 
L 318.954676 244.557474 
L 319.576024 244.557474 
L 320.197373 244.557474 
L 320.818721 244.557474 
L 321.44007 244.557474 
L 322.061418 244.557474 
L 322.682766 244.557474 
L 323.304115 244.557474 
L 323.925463 244.557474 
L 324.546812 244.557474 
L 325.16816 244.557474 
L 325.789508 244.557474 
L 326.410857 244.557474 
L 327.032205 244.557474 
L 327.653554 244.557474 
L 328.274902 244.557474 
L 328.896251 244.557474 
L 329.517599 244.557474 
L 330.138947 244.557474 
" style="fill:none;stroke:#000000;stroke-linecap:square;stroke-width:1.5;"/>
   </g>
   <g id="line2d_22">
    <path clip-path="url(#p6b815bb5d8)" d="M 330.138947 244.557474 
L 330.138947 243.271349 
L 330.138947 241.985225 
L 330.138947 240.6991 
L 330.138947 239.412976 
L 330.138947 238.126852 
L 330.138947 236.840727 
L 330.138947 235.554603 
L 330.138947 234.268478 
L 330.138947 232.982354 
L 330.138947 231.69623 
L 330.138947 230.410105 
L 330.138947 229.123981 
L 330.138947 227.837856 
L 330.138947 226.551732 
L 330.138947 225.265608 
L 330.138947 223.979483 
L 330.138947 222.693359 
L 330.138947 221.407234 
L 330.138947 220.12111 
L 330.138947 218.834986 
L 330.138947 217.548861 
L 330.138947 216.262737 
L 330.138947 214.976612 
L 330.138947 213.690488 
L 330.138947 212.404364 
L 330.138947 211.118239 
L 330.138947 209.832115 
L 330.138947 208.54599 
L 330.138947 207.259866 
L 330.138947 205.973742 
L 330.138947 204.687617 
L 330.138947 203.401493 
L 330.138947 202.115368 
L 330.138947 200.829244 
L 330.138947 199.54312 
L 330.138947 198.256995 
L 330.138947 196.970871 
L 330.138947 195.684746 
L 330.138947 194.398622 
L 330.138947 193.112498 
L 330.138947 191.826373 
L 330.138947 190.540249 
L 330.138947 189.254124 
L 330.138947 187.968 
L 330.138947 186.681876 
L 330.138947 185.395751 
L 330.138947 184.109627 
L 330.138947 182.823502 
L 330.138947 181.537378 
L 330.138947 180.251254 
L 330.138947 178.965129 
L 330.138947 177.679005 
L 330.138947 176.39288 
L 330.138947 175.106756 
L 330.138947 173.820632 
L 330.138947 172.534507 
L 330.138947 171.248383 
L 330.138947 169.962258 
L 330.138947 168.676134 
L 330.138947 167.39001 
L 330.138947 166.103885 
L 330.138947 164.817761 
L 330.138947 163.531636 
L 330.138947 162.245512 
L 330.138947 160.959388 
L 330.138947 159.673263 
L 330.138947 158.387139 
L 330.138947 157.101014 
L 330.138947 155.81489 
L 330.138947 154.528766 
L 330.138947 153.242641 
L 330.138947 151.956517 
L 330.138947 150.670392 
L 330.138947 149.384268 
L 330.138947 148.098144 
L 330.138947 146.812019 
L 330.138947 145.525895 
L 330.138947 144.23977 
L 330.138947 142.953646 
L 330.138947 141.667522 
L 330.138947 140.381397 
L 330.138947 139.095273 
L 330.138947 137.809148 
L 330.138947 136.523024 
L 330.138947 135.2369 
L 330.138947 133.950775 
L 330.138947 132.664651 
L 330.138947 131.378526 
L 330.138947 130.092402 
L 330.138947 128.806278 
L 330.138947 127.520153 
L 330.138947 126.234029 
L 330.138947 124.947904 
L 330.138947 123.66178 
L 330.138947 122.375656 
L 330.138947 121.089531 
L 330.138947 119.803407 
L 330.138947 118.517282 
L 330.138947 117.231158 
" style="fill:none;stroke:#000000;stroke-linecap:square;stroke-width:1.5;"/>
   </g>
   <g id="line2d_23">
    <path clip-path="url(#p6b815bb5d8)" d="M 268.625455 282.755368 
L 268.625455 282.369531 
L 268.625455 281.983694 
L 268.625455 281.597856 
L 268.625455 281.212019 
L 268.625455 280.826182 
L 268.625455 280.440344 
L 268.625455 280.054507 
L 268.625455 279.66867 
L 268.625455 279.282833 
L 268.625455 278.896995 
L 268.625455 278.511158 
L 268.625455 278.125321 
L 268.625455 277.739483 
L 268.625455 277.353646 
L 268.625455 276.967809 
L 268.625455 276.581971 
L 268.625455 276.196134 
L 268.625455 275.810297 
L 268.625455 275.424459 
L 268.625455 275.038622 
L 268.625455 274.652785 
L 268.625455 274.266947 
L 268.625455 273.88111 
L 268.625455 273.495273 
L 268.625455 273.109435 
L 268.625455 272.723598 
L 268.625455 272.337761 
L 268.625455 271.951923 
L 268.625455 271.566086 
L 268.625455 271.180249 
L 268.625455 270.794411 
L 268.625455 270.408574 
L 268.625455 270.022737 
L 268.625455 269.6369 
L 268.625455 269.251062 
L 268.625455 268.865225 
L 268.625455 268.479388 
L 268.625455 268.09355 
L 268.625455 267.707713 
L 268.625455 267.321876 
L 268.625455 266.936038 
L 268.625455 266.550201 
L 268.625455 266.164364 
L 268.625455 265.778526 
L 268.625455 265.392689 
L 268.625455 265.006852 
L 268.625455 264.621014 
L 268.625455 264.235177 
L 268.625455 263.84934 
L 268.625455 263.463502 
L 268.625455 263.077665 
L 268.625455 262.691828 
L 268.625455 262.30599 
L 268.625455 261.920153 
L 268.625455 261.534316 
L 268.625455 261.148478 
L 268.625455 260.762641 
L 268.625455 260.376804 
L 268.625455 259.990967 
L 268.625455 259.605129 
L 268.625455 259.219292 
L 268.625455 258.833455 
L 268.625455 258.447617 
L 268.625455 258.06178 
L 268.625455 257.675943 
L 268.625455 257.290105 
L 268.625455 256.904268 
L 268.625455 256.518431 
L 268.625455 256.132593 
L 268.625455 255.746756 
L 268.625455 255.360919 
L 268.625455 254.975081 
L 268.625455 254.589244 
L 268.625455 254.203407 
L 268.625455 253.817569 
L 268.625455 253.431732 
L 268.625455 253.045895 
L 268.625455 252.660057 
L 268.625455 252.27422 
L 268.625455 251.888383 
L 268.625455 251.502545 
L 268.625455 251.116708 
L 268.625455 250.730871 
L 268.625455 250.345033 
L 268.625455 249.959196 
L 268.625455 249.573359 
L 268.625455 249.187522 
L 268.625455 248.801684 
L 268.625455 248.415847 
L 268.625455 248.03001 
L 268.625455 247.644172 
L 268.625455 247.258335 
L 268.625455 246.872498 
L 268.625455 246.48666 
L 268.625455 246.100823 
L 268.625455 245.714986 
L 268.625455 245.329148 
L 268.625455 244.943311 
L 268.625455 244.557474 
" style="fill:none;stroke:#000000;stroke-linecap:square;stroke-width:1.5;"/>
   </g>
   <g id="line2d_24">
    <path clip-path="url(#p6b815bb5d8)" d="M 330.138947 117.231158 
L 330.138947 116.588096 
L 330.138947 115.945033 
L 330.138947 115.301971 
L 330.138947 114.658909 
L 330.138947 114.015847 
L 330.138947 113.372785 
L 330.138947 112.729722 
L 330.138947 112.08666 
L 330.138947 111.443598 
L 330.138947 110.800536 
L 330.138947 110.157474 
L 330.138947 109.514411 
L 330.138947 108.871349 
L 330.138947 108.228287 
L 330.138947 107.585225 
L 330.138947 106.942163 
L 330.138947 106.2991 
L 330.138947 105.656038 
L 330.138947 105.012976 
L 330.138947 104.369914 
L 330.138947 103.726852 
L 330.138947 103.083789 
L 330.138947 102.440727 
L 330.138947 101.797665 
L 330.138947 101.154603 
L 330.138947 100.511541 
L 330.138947 99.868478 
L 330.138947 99.225416 
L 330.138947 98.582354 
L 330.138947 97.939292 
L 330.138947 97.29623 
L 330.138947 96.653167 
L 330.138947 96.010105 
L 330.138947 95.367043 
L 330.138947 94.723981 
L 330.138947 94.080919 
L 330.138947 93.437856 
L 330.138947 92.794794 
L 330.138947 92.151732 
L 330.138947 91.50867 
L 330.138947 90.865608 
L 330.138947 90.222545 
L 330.138947 89.579483 
L 330.138947 88.936421 
L 330.138947 88.293359 
L 330.138947 87.650297 
L 330.138947 87.007234 
L 330.138947 86.364172 
L 330.138947 85.72111 
L 330.138947 85.078048 
L 330.138947 84.434986 
L 330.138947 83.791923 
L 330.138947 83.148861 
L 330.138947 82.505799 
L 330.138947 81.862737 
L 330.138947 81.219675 
L 330.138947 80.576612 
L 330.138947 79.93355 
L 330.138947 79.290488 
L 330.138947 78.647426 
L 330.138947 78.004364 
L 330.138947 77.361301 
L 330.138947 76.718239 
L 330.138947 76.075177 
L 330.138947 75.432115 
L 330.138947 74.789053 
L 330.138947 74.14599 
L 330.138947 73.502928 
L 330.138947 72.859866 
L 330.138947 72.216804 
L 330.138947 71.573742 
L 330.138947 70.930679 
L 330.138947 70.287617 
L 330.138947 69.644555 
L 330.138947 69.001493 
L 330.138947 68.358431 
L 330.138947 67.715368 
L 330.138947 67.072306 
L 330.138947 66.429244 
L 330.138947 65.786182 
L 330.138947 65.14312 
L 330.138947 64.500057 
L 330.138947 63.856995 
L 330.138947 63.213933 
L 330.138947 62.570871 
L 330.138947 61.927809 
L 330.138947 61.284746 
L 330.138947 60.641684 
L 330.138947 59.998622 
L 330.138947 59.35556 
L 330.138947 58.712498 
L 330.138947 58.069435 
L 330.138947 57.426373 
L 330.138947 56.783311 
L 330.138947 56.140249 
L 330.138947 55.497187 
L 330.138947 54.854124 
L 330.138947 54.211062 
L 330.138947 53.568 
" style="fill:none;stroke:#000000;stroke-linecap:square;stroke-width:1.5;"/>
   </g>
   <g id="line2d_25">
    <path clip-path="url(#p6b815bb5d8)" d="M 330.138947 117.231158 
L 330.829334 117.231158 
L 331.519722 117.231158 
L 332.210109 117.231158 
L 332.900496 117.231158 
L 333.590883 117.231158 
L 334.28127 117.231158 
L 334.971657 117.231158 
L 335.662044 117.231158 
L 336.352431 117.231158 
L 337.042819 117.231158 
L 337.733206 117.231158 
L 338.423593 117.231158 
L 339.11398 117.231158 
L 339.804367 117.231158 
L 340.494754 117.231158 
L 341.185141 117.231158 
L 341.875528 117.231158 
L 342.565916 117.231158 
L 343.256303 117.231158 
L 343.94669 117.231158 
L 344.637077 117.231158 
L 345.327464 117.231158 
L 346.017851 117.231158 
L 346.708238 117.231158 
L 347.398625 117.231158 
L 348.089013 117.231158 
L 348.7794 117.231158 
L 349.469787 117.231158 
L 350.160174 117.231158 
L 350.850561 117.231158 
L 351.540948 117.231158 
L 352.231335 117.231158 
L 352.921722 117.231158 
L 353.61211 117.231158 
L 354.302497 117.231158 
L 354.992884 117.231158 
L 355.683271 117.231158 
L 356.373658 117.231158 
L 357.064045 117.231158 
L 357.754432 117.231158 
L 358.444819 117.231158 
L 359.135207 117.231158 
L 359.825594 117.231158 
L 360.515981 117.231158 
L 361.206368 117.231158 
L 361.896755 117.231158 
L 362.587142 117.231158 
L 363.277529 117.231158 
L 363.967916 117.231158 
L 364.658304 117.231158 
L 365.348691 117.231158 
L 366.039078 117.231158 
L 366.729465 117.231158 
L 367.419852 117.231158 
L 368.110239 117.231158 
L 368.800626 117.231158 
L 369.491013 117.231158 
L 370.181401 117.231158 
L 370.871788 117.231158 
L 371.562175 117.231158 
L 372.252562 117.231158 
L 372.942949 117.231158 
L 373.633336 117.231158 
L 374.323723 117.231158 
L 375.01411 117.231158 
L 375.704498 117.231158 
L 376.394885 117.231158 
L 377.085272 117.231158 
L 377.775659 117.231158 
L 378.466046 117.231158 
L 379.156433 117.231158 
L 379.84682 117.231158 
L 380.537207 117.231158 
L 381.227595 117.231158 
L 381.917982 117.231158 
L 382.608369 117.231158 
L 383.298756 117.231158 
L 383.989143 117.231158 
L 384.67953 117.231158 
L 385.369917 117.231158 
L 386.060304 117.231158 
L 386.750692 117.231158 
L 387.441079 117.231158 
L 388.131466 117.231158 
L 388.821853 117.231158 
L 389.51224 117.231158 
L 390.202627 117.231158 
L 390.893014 117.231158 
L 391.583401 117.231158 
L 392.273789 117.231158 
L 392.964176 117.231158 
L 393.654563 117.231158 
L 394.34495 117.231158 
L 395.035337 117.231158 
L 395.725724 117.231158 
L 396.416111 117.231158 
L 397.106498 117.231158 
L 397.796886 117.231158 
L 398.487273 117.231158 
" style="fill:none;stroke:#000000;stroke-linecap:square;stroke-width:1.5;"/>
   </g>
   <g id="line2d_26">
    <path clip-path="url(#p6b815bb5d8)" d="M 330.138947 244.557474 
L 330.829334 245.071923 
L 331.519722 245.586373 
L 332.210109 246.100823 
L 332.900496 246.615273 
L 333.590883 247.129722 
L 334.28127 247.644172 
L 334.971657 248.158622 
L 335.662044 248.673072 
L 336.352431 249.187522 
L 337.042819 249.701971 
L 337.733206 250.216421 
L 338.423593 250.730871 
L 339.11398 251.245321 
L 339.804367 251.75977 
L 340.494754 252.27422 
L 341.185141 252.78867 
L 341.875528 253.30312 
L 342.565916 253.817569 
L 343.256303 254.332019 
L 343.94669 254.846469 
L 344.637077 255.360919 
L 345.327464 255.875368 
L 346.017851 256.389818 
L 346.708238 256.904268 
L 347.398625 257.418718 
L 348.089013 257.933167 
L 348.7794 258.447617 
L 349.469787 258.962067 
L 350.160174 259.476517 
L 350.850561 259.990967 
L 351.540948 260.505416 
L 352.231335 261.019866 
L 352.921722 261.534316 
L 353.61211 262.048766 
L 354.302497 262.563215 
L 354.992884 263.077665 
L 355.683271 263.592115 
L 356.373658 264.106565 
L 357.064045 264.621014 
L 357.754432 265.135464 
L 358.444819 265.649914 
L 359.135207 266.164364 
L 359.825594 266.678813 
L 360.515981 267.193263 
L 361.206368 267.707713 
L 361.896755 268.222163 
L 362.587142 268.736612 
L 363.277529 269.251062 
L 363.967916 269.765512 
L 364.658304 270.279962 
L 365.348691 270.794411 
L 366.039078 271.308861 
L 366.729465 271.823311 
L 367.419852 272.337761 
L 368.110239 272.852211 
L 368.800626 273.36666 
L 369.491013 273.88111 
L 370.181401 274.39556 
L 370.871788 274.91001 
L 371.562175 275.424459 
L 372.252562 275.938909 
L 372.942949 276.453359 
L 373.633336 276.967809 
L 374.323723 277.482258 
L 375.01411 277.996708 
L 375.704498 278.511158 
L 376.394885 279.025608 
L 377.085272 279.540057 
L 377.775659 280.054507 
L 378.466046 280.568957 
L 379.156433 281.083407 
L 379.84682 281.597856 
L 380.537207 282.112306 
L 381.227595 282.626756 
L 381.917982 283.141206 
L 382.608369 283.655656 
L 383.298756 284.170105 
L 383.989143 284.684555 
L 384.67953 285.199005 
L 385.369917 285.713455 
L 386.060304 286.227904 
L 386.750692 286.742354 
L 387.441079 287.256804 
L 388.131466 287.771254 
L 388.821853 288.285703 
L 389.51224 288.800153 
L 390.202627 289.314603 
L 390.893014 289.829053 
L 391.583401 290.343502 
L 392.273789 290.857952 
L 392.964176 291.372402 
L 393.654563 291.886852 
L 394.34495 292.401301 
L 395.035337 292.915751 
L 395.725724 293.430201 
L 396.416111 293.944651 
L 397.106498 294.4591 
L 397.796886 294.97355 
L 398.487273 295.488 
" style="fill:none;stroke:#000000;stroke-linecap:square;stroke-width:1.5;"/>
   </g>
   <g id="patch_3">
    <path d="M 57.6 307.584 
L 57.6 41.472 
" style="fill:none;stroke:#000000;stroke-linecap:square;stroke-linejoin:miter;stroke-width:0.8;"/>
   </g>
   <g id="patch_4">
    <path d="M 414.72 307.584 
L 414.72 41.472 
" style="fill:none;stroke:#000000;stroke-linecap:square;stroke-linejoin:miter;stroke-width:0.8;"/>
   </g>
   <g id="patch_5">
    <path d="M 57.6 307.584 
L 414.72 307.584 
" style="fill:none;stroke:#000000;stroke-linecap:square;stroke-linejoin:miter;stroke-width:0.8;"/>
   </g>
   <g id="patch_6">
    <path d="M 57.6 41.472 
L 414.72 41.472 
" style="fill:none;stroke:#000000;stroke-linecap:square;stroke-linejoin:miter;stroke-width:0.8;"/>
   </g>
  </g>
 </g>
 <defs>
  <clipPath id="p6b815bb5d8">
   <rect height="266.112" width="357.12" x="57.6" y="41.472"/>
  </clipPath>
 </defs>
</svg>
